# xmcd CD database file
# Copyright (C) 1993-1998 Ti Kan
#
# Track frame offsets:
#	150
#	16482
#	28977
#	47680
#	59887
#	71827
#	90165
#	100215
#	113522
#	131195
#	149585
#	163692
#	177167
#	191065
#	206060
#	226310
#	238720
#	253252
#	266655
#
# Disc length: 3760 seconds
#
# Revision: 2
# Processed by: cddbd v1.4b41PL1 Copyright (c) Steve Scherf et al.
# Submitted via: NotifyCDPlayer(CDDB) 1.51.3
#
DISCID=210eae13
DTITLE=Phil Cross and Poet Voices - Volume 1 Our God Is Marching On...
DYEAR=1900
DGENRE=
TTITLE0=Jesus Built A Bridge
TTITLE1=Our God Is Marching On
TTITLE2=Mama's Translation
TTITLE3=Blood Medley
TTITLE4=Power In A Song
TTITLE5=Be Still And Know
TTITLE6=My Sour Provider
TTITLE7=When I Get Carried Away
TTITLE8=Love Beyond Measure
TTITLE9=My Redeemer Lives
TTITLE10=Champion Of Love
TTITLE11=Restless Hearts
TTITLE12=Saved To The Uttermost
TTITLE13=When I Get Carried Away
TTITLE14=Wedding Music
TTITLE15=Miracle In Me
TTITLE16=I Still Get A Thrill
TTITLE17=He Won't Take Back One Promise
TTITLE18=Yes Is The Answer
EXTD=
EXTT0=
EXTT1=
EXTT2=
EXTT3=
EXTT4=
EXTT5=
EXTT6=
EXTT7=
EXTT8=
EXTT9=
EXTT10=
EXTT11=
EXTT12=
EXTT13=
EXTT14=
EXTT15=
EXTT16=
EXTT17=
EXTT18=
PLAYORDER=
